<?xml version="1.0" encoding="utf-8"?>
<!-- Generator: Adobe Illustrator 19.0.0, SVG Export Plug-In . SVG Version: 6.00 Build 0)  -->
<svg version="1.1" id="Capa_1" xmlns="http://www.w3.org/2000/svg" xmlns:xlink="http://www.w3.org/1999/xlink" x="0px" y="0px"
	 viewBox="-133 134 33 33" style="enable-background:new -133 134 33 33;" xml:space="preserve">
<g>
	<path d="M-125.7,166.7c-0.1,0-0.2,0-0.2-0.1c-0.2-0.1-0.3-0.3-0.3-0.4v-7.1c-4.4-2.3-6.8-6.3-6.8-11.3c0-7.7,7.1-13.5,16.5-13.5
		s16.5,5.8,16.5,13.5c0,7.7-7.1,13.5-16.5,13.5c-0.3,0-0.6,0-0.9,0l0,0l-8,5.3C-125.5,166.7-125.6,166.7-125.7,166.7z M-116.5,135.3
		c-8.8,0-15.5,5.4-15.5,12.5c0,3.3,1.1,7.8,6.5,10.5c0.2,0.1,0.3,0.3,0.3,0.4v6.5l7.4-4.9c0.1-0.1,0.2-0.1,0.3-0.1l0.2,0
		c0.3,0,0.6,0,0.9,0c8.8,0,15.5-5.4,15.5-12.5C-101,140.7-107.7,135.3-116.5,135.3z"/>
	<g>
		<path d="M-109,143.6h-15c-0.3,0-0.5-0.2-0.5-0.5s0.2-0.5,0.5-0.5h15c0.3,0,0.5,0.2,0.5,0.5S-108.7,143.6-109,143.6z"/>
		<path d="M-109,148.5h-15c-0.3,0-0.5-0.2-0.5-0.5s0.2-0.5,0.5-0.5h15c0.3,0,0.5,0.2,0.5,0.5S-108.7,148.5-109,148.5z"/>
		<path d="M-116.5,153.4h-7.5c-0.3,0-0.5-0.2-0.5-0.5c0-0.3,0.2-0.5,0.5-0.5h7.5c0.3,0,0.5,0.2,0.5,0.5
			C-116,153.1-116.2,153.4-116.5,153.4z"/>
	</g>
</g>
</svg>
